<mxfile host="app.diagrams.net" modified="2023-04-04T05:20:40.675Z" agent="Mozilla/5.0 (Windows NT 10.0; Win64; x64) AppleWebKit/537.36 (KHTML, like Gecko) Chrome/111.0.0.0 Safari/537.36" etag="W-hO5wu7kKX2F4r5KUwe" version="21.1.4" type="github">
  <diagram id="C5RBs43oDa-KdzZeNtuy" name="Page-1">
    <mxGraphModel dx="1886" dy="1959" grid="1" gridSize="10" guides="1" tooltips="1" connect="1" arrows="1" fold="1" page="1" pageScale="1" pageWidth="827" pageHeight="1169" math="0" shadow="0">
      <root>
        <mxCell id="WIyWlLk6GJQsqaUBKTNV-0" />
        <mxCell id="WIyWlLk6GJQsqaUBKTNV-1" parent="WIyWlLk6GJQsqaUBKTNV-0" />
        <mxCell id="eiGv13Y4jv3LgSI_48Q6-1" value="Start" style="ellipse;whiteSpace=wrap;html=1;" vertex="1" parent="WIyWlLk6GJQsqaUBKTNV-1">
          <mxGeometry x="350" y="-1160" width="120" height="80" as="geometry" />
        </mxCell>
        <mxCell id="eiGv13Y4jv3LgSI_48Q6-3" value="" style="endArrow=classic;html=1;rounded=0;" edge="1" parent="WIyWlLk6GJQsqaUBKTNV-1">
          <mxGeometry width="50" height="50" relative="1" as="geometry">
            <mxPoint x="413" y="-1080" as="sourcePoint" />
            <mxPoint x="413" y="-1050" as="targetPoint" />
          </mxGeometry>
        </mxCell>
        <mxCell id="eiGv13Y4jv3LgSI_48Q6-4" value="Get uId&lt;br&gt;Get username" style="rounded=0;whiteSpace=wrap;html=1;" vertex="1" parent="WIyWlLk6GJQsqaUBKTNV-1">
          <mxGeometry x="354" y="-1050" width="120" height="60" as="geometry" />
        </mxCell>
        <mxCell id="eiGv13Y4jv3LgSI_48Q6-5" value="" style="endArrow=classic;html=1;rounded=0;" edge="1" parent="WIyWlLk6GJQsqaUBKTNV-1">
          <mxGeometry width="50" height="50" relative="1" as="geometry">
            <mxPoint x="413" y="-990" as="sourcePoint" />
            <mxPoint x="413" y="-960" as="targetPoint" />
          </mxGeometry>
        </mxCell>
        <mxCell id="eiGv13Y4jv3LgSI_48Q6-6" value="User Auth" style="rounded=0;whiteSpace=wrap;html=1;" vertex="1" parent="WIyWlLk6GJQsqaUBKTNV-1">
          <mxGeometry x="354" y="-950" width="120" height="60" as="geometry" />
        </mxCell>
        <mxCell id="eiGv13Y4jv3LgSI_48Q6-7" value="" style="endArrow=classic;html=1;rounded=0;" edge="1" parent="WIyWlLk6GJQsqaUBKTNV-1">
          <mxGeometry width="50" height="50" relative="1" as="geometry">
            <mxPoint x="414" y="-890" as="sourcePoint" />
            <mxPoint x="414" y="-870" as="targetPoint" />
          </mxGeometry>
        </mxCell>
        <mxCell id="eiGv13Y4jv3LgSI_48Q6-8" value="Run CLI Command" style="rounded=0;whiteSpace=wrap;html=1;" vertex="1" parent="WIyWlLk6GJQsqaUBKTNV-1">
          <mxGeometry x="354" y="-860" width="120" height="60" as="geometry" />
        </mxCell>
        <mxCell id="eiGv13Y4jv3LgSI_48Q6-10" value="" style="endArrow=classic;html=1;rounded=0;" edge="1" parent="WIyWlLk6GJQsqaUBKTNV-1">
          <mxGeometry width="50" height="50" relative="1" as="geometry">
            <mxPoint x="354" y="-790" as="sourcePoint" />
            <mxPoint x="120" y="-720" as="targetPoint" />
          </mxGeometry>
        </mxCell>
        <mxCell id="eiGv13Y4jv3LgSI_48Q6-11" value="asf&lt;br&gt;将磁带定位到第 count 个文件的开头" style="rounded=0;whiteSpace=wrap;html=1;" vertex="1" parent="WIyWlLk6GJQsqaUBKTNV-1">
          <mxGeometry x="50" y="-710" width="100" height="60" as="geometry" />
        </mxCell>
        <mxCell id="eiGv13Y4jv3LgSI_48Q6-14" value="" style="endArrow=classic;html=1;rounded=0;" edge="1" parent="WIyWlLk6GJQsqaUBKTNV-1">
          <mxGeometry width="50" height="50" relative="1" as="geometry">
            <mxPoint x="380" y="-790" as="sourcePoint" />
            <mxPoint x="140" y="-630" as="targetPoint" />
          </mxGeometry>
        </mxCell>
        <mxCell id="eiGv13Y4jv3LgSI_48Q6-15" value="bsf&lt;br&gt; 向后定位到第 count 个文件（定位到文件标记之前）。" style="rounded=0;whiteSpace=wrap;html=1;" vertex="1" parent="WIyWlLk6GJQsqaUBKTNV-1">
          <mxGeometry x="80" y="-620" width="120" height="60" as="geometry" />
        </mxCell>
        <mxCell id="eiGv13Y4jv3LgSI_48Q6-16" value="" style="endArrow=classic;html=1;rounded=0;" edge="1" parent="WIyWlLk6GJQsqaUBKTNV-1" target="eiGv13Y4jv3LgSI_48Q6-17">
          <mxGeometry width="50" height="50" relative="1" as="geometry">
            <mxPoint x="404" y="-790" as="sourcePoint" />
            <mxPoint x="180" y="-520" as="targetPoint" />
          </mxGeometry>
        </mxCell>
        <mxCell id="eiGv13Y4jv3LgSI_48Q6-17" value="bsfm&lt;br&gt;向磁带后退 count 个文件，然后向前移动一个记录位置，从而将磁带定位到当前文件之前 count - 1 个文件的第一个块" style="rounded=0;whiteSpace=wrap;html=1;" vertex="1" parent="WIyWlLk6GJQsqaUBKTNV-1">
          <mxGeometry x="140" y="-550" width="120" height="160" as="geometry" />
        </mxCell>
        <mxCell id="eiGv13Y4jv3LgSI_48Q6-18" value="" style="endArrow=classic;html=1;rounded=0;" edge="1" parent="WIyWlLk6GJQsqaUBKTNV-1" target="eiGv13Y4jv3LgSI_48Q6-19">
          <mxGeometry width="50" height="50" relative="1" as="geometry">
            <mxPoint x="420" y="-790" as="sourcePoint" />
            <mxPoint x="330" y="-550" as="targetPoint" />
          </mxGeometry>
        </mxCell>
        <mxCell id="eiGv13Y4jv3LgSI_48Q6-19" value="bsr&lt;br&gt;向后退count个文件。&lt;br&gt;调用其space_blocks方法向后移动count个文件，" style="rounded=0;whiteSpace=wrap;html=1;" vertex="1" parent="WIyWlLk6GJQsqaUBKTNV-1">
          <mxGeometry x="290" y="-530" width="120" height="60" as="geometry" />
        </mxCell>
        <mxCell id="eiGv13Y4jv3LgSI_48Q6-20" value="" style="endArrow=classic;html=1;rounded=0;" edge="1" parent="WIyWlLk6GJQsqaUBKTNV-1" target="eiGv13Y4jv3LgSI_48Q6-21">
          <mxGeometry width="50" height="50" relative="1" as="geometry">
            <mxPoint x="440" y="-790" as="sourcePoint" />
            <mxPoint x="430" y="-450" as="targetPoint" />
          </mxGeometry>
        </mxCell>
        <mxCell id="eiGv13Y4jv3LgSI_48Q6-21" value="eject &lt;br&gt;根据参数获取磁带的句柄,并将磁带弹出" style="rounded=0;whiteSpace=wrap;html=1;" vertex="1" parent="WIyWlLk6GJQsqaUBKTNV-1">
          <mxGeometry x="360" y="-450" width="120" height="60" as="geometry" />
        </mxCell>
        <mxCell id="eiGv13Y4jv3LgSI_48Q6-22" value="" style="endArrow=classic;html=1;rounded=0;" edge="1" parent="WIyWlLk6GJQsqaUBKTNV-1">
          <mxGeometry width="50" height="50" relative="1" as="geometry">
            <mxPoint x="450" y="-790" as="sourcePoint" />
            <mxPoint x="500" y="-330" as="targetPoint" />
          </mxGeometry>
        </mxCell>
        <mxCell id="eiGv13Y4jv3LgSI_48Q6-23" value="eod,根据参数获取句柄,移动到磁带的末尾" style="rounded=0;whiteSpace=wrap;html=1;" vertex="1" parent="WIyWlLk6GJQsqaUBKTNV-1">
          <mxGeometry x="440" y="-320" width="120" height="60" as="geometry" />
        </mxCell>
        <mxCell id="eiGv13Y4jv3LgSI_48Q6-24" value="" style="endArrow=classic;html=1;rounded=0;" edge="1" parent="WIyWlLk6GJQsqaUBKTNV-1" target="eiGv13Y4jv3LgSI_48Q6-25">
          <mxGeometry width="50" height="50" relative="1" as="geometry">
            <mxPoint x="470" y="-790" as="sourcePoint" />
            <mxPoint x="600" y="-190" as="targetPoint" />
          </mxGeometry>
        </mxCell>
        <mxCell id="eiGv13Y4jv3LgSI_48Q6-25" value="&lt;div style=&quot;color: rgb(212, 212, 212); background-color: rgb(30, 30, 30); font-family: Consolas, &amp;quot;Yahei Consolas Hybrid&amp;quot;, monospace, Consolas, &amp;quot;Courier New&amp;quot;, monospace; font-size: 14px; line-height: 19px;&quot;&gt;erase,擦除磁带上的数据,可选是否快速删除。默认不使用&lt;br&gt;&lt;/div&gt;" style="rounded=0;whiteSpace=wrap;html=1;" vertex="1" parent="WIyWlLk6GJQsqaUBKTNV-1">
          <mxGeometry x="540" y="-220" width="120" height="60" as="geometry" />
        </mxCell>
        <mxCell id="eiGv13Y4jv3LgSI_48Q6-27" value="" style="endArrow=classic;html=1;rounded=0;" edge="1" parent="WIyWlLk6GJQsqaUBKTNV-1" target="eiGv13Y4jv3LgSI_48Q6-28">
          <mxGeometry width="50" height="50" relative="1" as="geometry">
            <mxPoint x="474" y="-800" as="sourcePoint" />
            <mxPoint x="590" y="-630" as="targetPoint" />
          </mxGeometry>
        </mxCell>
        <mxCell id="eiGv13Y4jv3LgSI_48Q6-28" value="load,根据参数,获取句柄,调用load方法装载" style="rounded=0;whiteSpace=wrap;html=1;" vertex="1" parent="WIyWlLk6GJQsqaUBKTNV-1">
          <mxGeometry x="530" y="-660" width="120" height="60" as="geometry" />
        </mxCell>
        <mxCell id="eiGv13Y4jv3LgSI_48Q6-30" value="" style="endArrow=classic;html=1;rounded=0;" edge="1" parent="WIyWlLk6GJQsqaUBKTNV-1" target="eiGv13Y4jv3LgSI_48Q6-31">
          <mxGeometry width="50" height="50" relative="1" as="geometry">
            <mxPoint x="480" y="-810" as="sourcePoint" />
            <mxPoint x="570" y="-760" as="targetPoint" />
          </mxGeometry>
        </mxCell>
        <mxCell id="eiGv13Y4jv3LgSI_48Q6-31" value="lock&lt;br&gt;通过函数将移除设置为false实现锁定磁带" style="rounded=0;whiteSpace=wrap;html=1;" vertex="1" parent="WIyWlLk6GJQsqaUBKTNV-1">
          <mxGeometry x="540" y="-810" width="120" height="60" as="geometry" />
        </mxCell>
        <mxCell id="eiGv13Y4jv3LgSI_48Q6-32" value="" style="endArrow=classic;html=1;rounded=0;" edge="1" parent="WIyWlLk6GJQsqaUBKTNV-1" target="eiGv13Y4jv3LgSI_48Q6-33">
          <mxGeometry width="50" height="50" relative="1" as="geometry">
            <mxPoint x="474" y="-810" as="sourcePoint" />
            <mxPoint x="640" y="-450" as="targetPoint" />
          </mxGeometry>
        </mxCell>
        <mxCell id="eiGv13Y4jv3LgSI_48Q6-33" value="unlock&lt;br&gt;通过函数将移除设置为true实现锁定磁带" style="rounded=0;whiteSpace=wrap;html=1;" vertex="1" parent="WIyWlLk6GJQsqaUBKTNV-1">
          <mxGeometry x="580" y="-480" width="120" height="60" as="geometry" />
        </mxCell>
      </root>
    </mxGraphModel>
  </diagram>
</mxfile>
